
<svg xmlns="http://www.w3.org/2000/svg" xmlns:xlink="http://www.w3.org/1999/xlink" aria-hidden="true" role="img" class="iconify iconify--logos" width="31.88" height="32" preserveAspectRatio="xMidYMid meet" viewBox="0 0 256 257"><defs><linearGradient id="IconifyId1813088fe1fbc01fb466" x1="-.828%" x2="57.636%" y1="7.652%" y2="78.411%"><stop offset="0%" stop-color="#41D1FF"></stop><stop offset="100%" stop-color="#BD34FE"></stop></linearGradient><linearGradient id="IconifyId1813088fe1fbc01fb467" x1="43.376%" x2="50.316%" y1="2.242%" y2="89.03%"><stop offset="0%" stop-color="#FFBD4F"></stop><stop offset="100%" stop-color="#FF980E"></stop></linearGradient></defs><path fill="url(#IconifyId1813088fe1fbc01fb466)" d="M255.153 37.938L134.897 252.976c-2.483 4.44-8.862 4.466-11.382.048L.875 37.958c-2.746-4.814 1.371-10.646 6.827-9.67l120.385 21.517a6.537 6.537 0 0 0 6.681-3.217l113.519-202.433c2.716-4.858 9.903-2.469 9.897 3.074l-.234 186.283c-.001 1.54-.408 3.057-1.197 4.383Z"></path><path fill="url(#IconifyId1813088fe1fbc01fb467)" d="M185.432.063L96.44 175.101a3.268 3.268 0 0 0 2.798 4.748l37.203.535c1.125.016 2.226-.322 3.144-.963l106.499-74.186c2.95-2.058 1.393-6.724-2.175-6.514l-25.945 1.526c-2.358.139-4.394-1.643-4.396-4.002l-.595-92.224c-.005-3.588-4.825-5.356-7.301-2.766Z"></path></svg>
  